Patient4_TMGait_0pt6_02_right_40_EMG.mot
version=1
nRows=13
nColumns=33
inDegrees=no
endheader
time	1LAddLong	2LGlutMax	3LGlutMed	4LIliopsoas	5LSemiMemb	6LBicFemLong	7LRecFem	8LVastMed	9LVastLat	10LGasMed	11LTibAnt	12lTibPost	13LPeroneusLong	14LSol	15LExtDigLong	16LFlexDigLong	17RAddLong	18RGlutMax	19RGlutMed	20RIliopsoas	21RSemiMemb	22RBicFemLong	23RRecFem	24RVastMed	25RVastLat	26RGasMed	27RTibAnt	28RTibPost	29RPeroneusLong	30RSol	31RExtDigLong	32RFlexDigLong
49.085	-0.017548	-0.026093	0.007019	0.013123	-0.066528	0.026398	-0.08667	-0.011292	-0.21027	-0.19913	0.0177	0.00473	0.007935	0.026245	-0.008392	0.004272	0.003815	-0.21652	-0.030365	-0.054474	0.14282	0.22201	-0.29816	0.12161	0.070801	0.00824	-0.03067	-0.082703	-0.089264	-0.53421	-0.002594	-0.00885
49.086	-0.02655	0.016479	0.031738	0.017853	-0.14496	0.10574	-0.059509	-0.019073	-0.13809	-0.10666	0.007935	0.001831	0.033722	0.022278	0.017395	0.001068	-0.007019	-0.25726	-0.17441	-0.089417	0.26566	0.23712	-0.32318	0.10223	0.055237	-0.004578	-0.046692	-0.015564	0.009155	-0.27359	0.000916	-0.018616
49.087	-0.014191	0.020447	0.093536	0.021057	-0.10727	0.14832	-0.099182	-0.024414	-0.081787	-0.034637	0.01236	0.008545	0.046539	0.001526	0.034637	0.006409	-0.035858	-0.25879	0.048065	-0.08606	-0.014954	0.31036	-0.31738	0.062561	0.045776	-0.014648	-0.036011	-0.19318	-0.008392	-0.38437	-0.001831	-0.018768
49.088	0.021667	0.093231	0.008087	0.00824	0.093842	0.13702	-0.12253	-0.042419	0.013123	0.022888	0.010681	0.008698	0.051575	-0.00351	0.024719	0.00824	-0.026703	-0.1976	-0.099335	0.018311	0.088043	0.31128	-0.33112	0.012665	0.038757	-0.030212	-0.067444	0.036926	0.16998	-0.1387	-0.002289	-0.021057
49.089	0.047302	0.14099	-0.083618	0.006714	0.15701	0.070648	-0.063782	-0.02655	0.027313	0.044708	0.006104	0.01236	0.031281	0.03891	0.026703	0.002289	-0.038605	-0.25101	-0.21744	-0.010986	0.10803	0.30548	-0.32913	-0.018005	0.05249	-0.037079	-0.039368	0.19302	0.087738	0.048523	-0.003052	-0.017548
49.09	0.088348	0.072479	-0.15869	0.006104	0.22476	-0.14771	-0.073395	-0.01709	0.14816	-0.009613	0.003204	0.005798	0.035248	0.13092	0.023041	0.007477	-0.019684	-0.23025	-0.31967	-0.1506	0.11627	0.31143	-0.34821	-0.041809	0.036011	-0.018768	-0.007477	0.087585	0.003967	0.30701	-0.001068	-0.016632
49.091	0.093994	0.001373	-0.08667	-0.016327	0.29053	-0.49362	-0.1004	-0.014191	0.29159	-0.072174	0.036926	-0.000153	0.02594	0.13916	-0.002441	0.009613	-0.014038	-0.21744	-0.33173	-0.19989	0.11887	0.18723	-0.37048	0.019073	0.039978	0.031281	0.066528	0.029755	0.007019	0.4451	-0.000458	-0.024414
49.092	0.066833	-0.028839	-0.054626	-0.001984	0.2504	-0.29511	-0.11902	0.003967	0.45563	-0.075378	0.074615	0.008087	0.006104	0.027008	-0.000763	0.00885	-0.000458	-0.20645	-0.35111	-0.11231	0.038147	0.038757	-0.39993	0.003662	0.025482	0.050354	0.045929	0.020142	0.1648	0.40604	0	-0.020447
49.093	0.023804	-0.030823	0.014343	-0.009155	0.16892	0.0914	-0.13199	0.006866	0.51407	-0.05661	0.097656	0.011292	-0.006104	-0.079498	-0.005646	0.018005	0.0383	-0.16434	-0.020599	0.16052	-0.010986	-0.039673	-0.38452	-0.010529	0.00412	0.026703	-0.037994	0.001373	0.17654	0.53802	0.000763	-0.024872
49.094	0.009003	-0.019989	0.053253	-0.003052	0.088959	0.38605	-0.13443	0.003052	0.59433	-0.10101	0.065765	0.016479	0.001526	-0.096283	-0.003967	0.042877	0.060425	-0.18295	0.03952	0.34424	-0.046692	-0.077057	-0.401	-0.019684	0.020599	0.005188	-0.049744	0.005035	0.19974	0.50217	0.000153	-0.022888
49.095	-0.007629	-0.091095	0.049896	0.018921	0.044403	0.44876	-0.11017	-0.001221	0.49561	-0.050659	-0.038147	0.004272	0.042572	-0.034027	-0.011902	0.044556	0.045013	-0.11093	-0.50964	0.24307	0.018921	-0.15671	-0.42206	-0.023956	0.011902	-0.021515	-0.029144	0.007019	0.20721	0.45044	-0.003662	-0.022125
49.096	-0.00885	-0.13702	0.014038	0.024719	0.015717	0.076752	-0.08728	-0.012207	0.28366	0.049133	-0.023041	0.013733	0.036774	-0.02182	-0.020752	0.041504	0.031281	-0.098724	-0.050201	0.053101	0.000458	-0.13992	-0.49088	0.037842	0.036316	-0.050049	-0.044556	0.010376	0.23453	0.19608	-0.001221	-0.020447
49.097	-0.03067	-0.15366	-0.021362	0.019684	-0.053864	-0.15091	-0.069122	-0.014801	0.011902	0.12039	0.006561	0.024567	0.032501	-0.040283	-0.027008	0.051117	0.022583	-0.11505	-0.02655	0.0177	-0.084229	-0.021057	-0.51468	0.01358	0.036469	-0.040741	0.10284	0.01297	0.19394	-0.21088	-0.001068	-0.015564
